<svg width="228" height="27" viewBox="0 0 228 27" fill="none" xmlns="http://www.w3.org/2000/svg">
<path d="M17.1528 21.032C17.7528 21.296 18.0528 21.74 18.0528 22.364C18.0528 22.844 17.8848 23.24 17.5488 23.552C17.2368 23.84 16.8408 23.984 16.3608 23.984C16.0248 23.984 15.7248 23.924 15.4608 23.804L2.10475 18.116C1.60075 17.9 1.20475 17.588 0.91675 17.18C0.62875 16.748 0.48475 16.256 0.48475 15.704C0.48475 15.176 0.62875 14.696 0.91675 14.264C1.20475 13.832 1.60075 13.52 2.10475 13.328L15.4608 7.604C15.7728 7.484 16.0728 7.424 16.3608 7.424C16.8408 7.424 17.2368 7.58 17.5488 7.892C17.8848 8.18 18.0528 8.564 18.0528 9.044C18.0528 9.668 17.7528 10.112 17.1528 10.376L4.44475 15.704L17.1528 21.032ZM38.0187 13.328C38.5227 13.52 38.9187 13.832 39.2067 14.264C39.4947 14.696 39.6387 15.176 39.6387 15.704C39.6387 16.256 39.4947 16.748 39.2067 17.18C38.9187 17.588 38.5227 17.9 38.0187 18.116L24.6627 23.804C24.3987 23.924 24.0987 23.984 23.7627 23.984C23.2827 23.984 22.8747 23.84 22.5387 23.552C22.2267 23.24 22.0707 22.844 22.0707 22.364C22.0707 21.74 22.3707 21.296 22.9707 21.032L35.6787 15.704L22.9707 10.376C22.3707 10.112 22.0707 9.668 22.0707 9.044C22.0707 8.564 22.2267 8.18 22.5387 7.892C22.8747 7.58 23.2827 7.424 23.7627 7.424C24.0507 7.424 24.3507 7.484 24.6627 7.604L38.0187 13.328Z" fill="#00A9E6"/>
<path d="M56.3461 26C55.6501 26 55.1101 25.808 54.7261 25.424C54.3421 25.04 54.1501 24.512 54.1501 23.84V2.744C54.1501 2.048 54.3541 1.496 54.7621 1.088C55.1941 0.655999 55.7581 0.439999 56.4541 0.439999C57.1741 0.439999 57.7381 0.655999 58.1461 1.088C58.5781 1.496 58.7941 2.048 58.7941 2.744V22.184H68.9101C70.3501 22.184 71.0701 22.82 71.0701 24.092C71.0701 25.364 70.3501 26 68.9101 26H56.3461ZM87.2673 8.036C87.9633 8.036 88.5153 8.228 88.9233 8.612C89.3313 8.996 89.5352 9.512 89.5352 10.16V24.128C89.5352 24.752 89.3193 25.256 88.8873 25.64C88.4793 26.024 87.9393 26.216 87.2673 26.216C86.6193 26.216 86.1033 26.036 85.7193 25.676C85.3353 25.316 85.1433 24.824 85.1433 24.2V23.3C84.5913 24.26 83.8473 25.004 82.9113 25.532C81.9753 26.036 80.9193 26.288 79.7433 26.288C75.4233 26.288 73.2633 23.864 73.2633 19.016V10.16C73.2633 9.512 73.4673 8.996 73.8753 8.612C74.2833 8.228 74.8233 8.036 75.4953 8.036C76.1913 8.036 76.7433 8.228 77.1513 8.612C77.5593 8.996 77.7633 9.512 77.7633 10.16V19.052C77.7633 20.3 78.0153 21.224 78.5193 21.824C79.0233 22.424 79.8153 22.724 80.8953 22.724C82.1433 22.724 83.1393 22.316 83.8833 21.5C84.6513 20.66 85.0353 19.556 85.0353 18.188V10.16C85.0353 9.512 85.2393 8.996 85.6473 8.612C86.0553 8.228 86.5953 8.036 87.2673 8.036ZM96.4509 26.216C95.8029 26.216 95.2629 26.036 94.8309 25.676C94.4229 25.292 94.2189 24.752 94.2189 24.056V10.16C94.2189 9.464 94.4229 8.936 94.8309 8.576C95.2629 8.216 95.8029 8.036 96.4509 8.036C97.0989 8.036 97.6389 8.216 98.0709 8.576C98.5029 8.936 98.7189 9.464 98.7189 10.16V24.056C98.7189 24.752 98.5029 25.292 98.0709 25.676C97.6389 26.036 97.0989 26.216 96.4509 26.216ZM96.4509 4.832C95.6349 4.832 94.9869 4.616 94.5069 4.184C94.0269 3.728 93.7869 3.14 93.7869 2.42C93.7869 1.7 94.0269 1.124 94.5069 0.692C94.9869 0.26 95.6349 0.0439994 96.4509 0.0439994C97.2429 0.0439994 97.8789 0.26 98.3589 0.692C98.8629 1.124 99.1149 1.7 99.1149 2.42C99.1149 3.14 98.8749 3.728 98.3949 4.184C97.9149 4.616 97.2669 4.832 96.4509 4.832ZM109.732 26.288C107.116 26.288 105.004 25.772 103.396 24.74C102.628 24.284 102.244 23.636 102.244 22.796C102.244 22.316 102.376 21.932 102.64 21.644C102.904 21.332 103.228 21.176 103.612 21.176C104.02 21.176 104.584 21.368 105.304 21.752C106.072 22.112 106.768 22.388 107.392 22.58C108.04 22.772 108.856 22.868 109.84 22.868C110.848 22.868 111.628 22.7 112.18 22.364C112.756 22.028 113.044 21.56 113.044 20.96C113.044 20.552 112.924 20.228 112.684 19.988C112.468 19.748 112.06 19.532 111.46 19.34C110.884 19.124 109.996 18.884 108.796 18.62C106.66 18.188 105.124 17.576 104.188 16.784C103.276 15.992 102.82 14.9 102.82 13.508C102.82 12.452 103.132 11.504 103.756 10.664C104.38 9.8 105.232 9.14 106.312 8.684C107.416 8.204 108.664 7.964 110.056 7.964C111.064 7.964 112.036 8.096 112.972 8.36C113.908 8.6 114.748 8.96 115.492 9.44C116.26 9.92 116.644 10.556 116.644 11.348C116.644 11.828 116.512 12.236 116.248 12.572C115.984 12.884 115.66 13.04 115.276 13.04C115.012 13.04 114.748 12.992 114.484 12.896C114.244 12.776 113.932 12.608 113.548 12.392C112.852 12.032 112.252 11.768 111.748 11.6C111.244 11.408 110.62 11.312 109.876 11.312C108.988 11.312 108.28 11.492 107.752 11.852C107.248 12.212 106.996 12.704 106.996 13.328C106.996 13.928 107.26 14.384 107.788 14.696C108.316 15.008 109.336 15.32 110.848 15.632C112.456 15.968 113.716 16.352 114.628 16.784C115.54 17.216 116.188 17.756 116.572 18.404C116.98 19.052 117.184 19.88 117.184 20.888C117.184 22.52 116.5 23.828 115.132 24.812C113.788 25.796 111.988 26.288 109.732 26.288ZM133.306 26.216C132.61 26.216 132.046 26 131.614 25.568C131.206 25.136 131.002 24.572 131.002 23.876V2.816C131.002 2.12 131.194 1.58 131.578 1.196C131.986 0.811999 132.538 0.619998 133.234 0.619998H145.87C147.334 0.619998 148.066 1.244 148.066 2.492C148.066 3.716 147.334 4.328 145.87 4.328H135.574V11.24H145.15C146.614 11.24 147.346 11.864 147.346 13.112C147.346 14.336 146.614 14.948 145.15 14.948H135.574V23.876C135.574 24.572 135.37 25.136 134.962 25.568C134.554 26 134.002 26.216 133.306 26.216ZM153.228 26.216C152.58 26.216 152.04 26.036 151.608 25.676C151.2 25.292 150.996 24.752 150.996 24.056V2.564C150.996 1.868 151.2 1.34 151.608 0.979998C152.04 0.619998 152.58 0.439999 153.228 0.439999C153.876 0.439999 154.416 0.619998 154.848 0.979998C155.28 1.34 155.496 1.868 155.496 2.564V24.056C155.496 24.752 155.28 25.292 154.848 25.676C154.416 26.036 153.876 26.216 153.228 26.216ZM168.165 26.288C166.365 26.288 164.781 25.916 163.413 25.172C162.069 24.428 161.025 23.36 160.281 21.968C159.537 20.576 159.165 18.956 159.165 17.108C159.165 15.26 159.537 13.652 160.281 12.284C161.025 10.892 162.069 9.824 163.413 9.08C164.781 8.336 166.365 7.964 168.165 7.964C169.965 7.964 171.537 8.336 172.881 9.08C174.249 9.824 175.293 10.892 176.013 12.284C176.757 13.652 177.129 15.26 177.129 17.108C177.129 18.956 176.757 20.576 176.013 21.968C175.293 23.36 174.249 24.428 172.881 25.172C171.537 25.916 169.965 26.288 168.165 26.288ZM168.129 22.796C169.593 22.796 170.709 22.316 171.477 21.356C172.245 20.396 172.629 18.98 172.629 17.108C172.629 15.26 172.245 13.856 171.477 12.896C170.709 11.912 169.605 11.42 168.165 11.42C166.725 11.42 165.609 11.912 164.817 12.896C164.049 13.856 163.665 15.26 163.665 17.108C163.665 18.98 164.049 20.396 164.817 21.356C165.585 22.316 166.689 22.796 168.129 22.796ZM190.672 8.036C191.296 7.988 191.788 8.12 192.148 8.432C192.508 8.744 192.688 9.212 192.688 9.836C192.688 10.484 192.532 10.964 192.22 11.276C191.908 11.588 191.344 11.792 190.528 11.888L189.448 11.996C188.032 12.14 186.988 12.62 186.316 13.436C185.668 14.252 185.344 15.272 185.344 16.496V24.056C185.344 24.752 185.128 25.292 184.696 25.676C184.264 26.036 183.724 26.216 183.076 26.216C182.428 26.216 181.888 26.036 181.456 25.676C181.048 25.292 180.844 24.752 180.844 24.056V10.124C180.844 9.452 181.048 8.936 181.456 8.576C181.888 8.216 182.416 8.036 183.04 8.036C183.664 8.036 184.168 8.216 184.552 8.576C184.936 8.912 185.128 9.404 185.128 10.052V11.492C185.584 10.436 186.256 9.62 187.144 9.044C188.056 8.468 189.064 8.144 190.168 8.072L190.672 8.036ZM208.206 21.176C208.614 21.176 208.938 21.332 209.178 21.644C209.442 21.956 209.574 22.376 209.574 22.904C209.574 23.648 209.13 24.272 208.242 24.776C207.426 25.232 206.502 25.604 205.47 25.892C204.438 26.156 203.454 26.288 202.518 26.288C199.686 26.288 197.442 25.472 195.786 23.84C194.13 22.208 193.302 19.976 193.302 17.144C193.302 15.344 193.662 13.748 194.382 12.356C195.102 10.964 196.11 9.884 197.406 9.116C198.726 8.348 200.214 7.964 201.87 7.964C203.454 7.964 204.834 8.312 206.01 9.008C207.186 9.704 208.098 10.688 208.746 11.96C209.394 13.232 209.718 14.732 209.718 16.46C209.718 17.492 209.262 18.008 208.35 18.008H197.73C197.874 19.664 198.342 20.888 199.134 21.68C199.926 22.448 201.078 22.832 202.59 22.832C203.358 22.832 204.03 22.736 204.606 22.544C205.206 22.352 205.878 22.088 206.622 21.752C207.342 21.368 207.87 21.176 208.206 21.176ZM201.978 11.132C200.754 11.132 199.77 11.516 199.026 12.284C198.306 13.052 197.874 14.156 197.73 15.596H205.866C205.818 14.132 205.458 13.028 204.786 12.284C204.114 11.516 203.178 11.132 201.978 11.132ZM219.771 26.288C217.155 26.288 215.043 25.772 213.435 24.74C212.667 24.284 212.283 23.636 212.283 22.796C212.283 22.316 212.415 21.932 212.679 21.644C212.943 21.332 213.267 21.176 213.651 21.176C214.059 21.176 214.623 21.368 215.343 21.752C216.111 22.112 216.807 22.388 217.431 22.58C218.079 22.772 218.895 22.868 219.879 22.868C220.887 22.868 221.667 22.7 222.219 22.364C222.795 22.028 223.083 21.56 223.083 20.96C223.083 20.552 222.963 20.228 222.723 19.988C222.507 19.748 222.099 19.532 221.499 19.34C220.923 19.124 220.035 18.884 218.835 18.62C216.699 18.188 215.163 17.576 214.227 16.784C213.315 15.992 212.859 14.9 212.859 13.508C212.859 12.452 213.171 11.504 213.795 10.664C214.419 9.8 215.271 9.14 216.351 8.684C217.455 8.204 218.703 7.964 220.095 7.964C221.103 7.964 222.075 8.096 223.011 8.36C223.947 8.6 224.787 8.96 225.531 9.44C226.299 9.92 226.683 10.556 226.683 11.348C226.683 11.828 226.551 12.236 226.287 12.572C226.023 12.884 225.699 13.04 225.315 13.04C225.051 13.04 224.787 12.992 224.523 12.896C224.283 12.776 223.971 12.608 223.587 12.392C222.891 12.032 222.291 11.768 221.787 11.6C221.283 11.408 220.659 11.312 219.915 11.312C219.027 11.312 218.319 11.492 217.791 11.852C217.287 12.212 217.035 12.704 217.035 13.328C217.035 13.928 217.299 14.384 217.827 14.696C218.355 15.008 219.375 15.32 220.887 15.632C222.495 15.968 223.755 16.352 224.667 16.784C225.579 17.216 226.227 17.756 226.611 18.404C227.019 19.052 227.223 19.88 227.223 20.888C227.223 22.52 226.539 23.828 225.171 24.812C223.827 25.796 222.027 26.288 219.771 26.288Z" fill="#F4F4F4"/>
</svg>
